<svg width="33" height="34" viewBox="0 0 33 34" fill="none" xmlns="http://www.w3.org/2000/svg">
<path d="M22.6875 10.8125C22.6875 10.539 22.7961 10.2767 22.9895 10.0833C23.1829 9.8899 23.4452 9.78125 23.7188 9.78125H27.8438C28.1173 9.78125 28.3796 9.8899 28.573 10.0833C28.7664 10.2767 28.875 10.539 28.875 10.8125C28.875 11.086 28.7664 11.3483 28.573 11.5417C28.3796 11.7351 28.1173 11.8438 27.8438 11.8438H23.7188C23.4452 11.8438 23.1829 11.7351 22.9895 11.5417C22.7961 11.3483 22.6875 11.086 22.6875 10.8125ZM5.15625 11.8438H18.5625V13.9062C18.5625 14.1798 18.6711 14.4421 18.8645 14.6355C19.0579 14.8289 19.3202 14.9375 19.5938 14.9375C19.8673 14.9375 20.1296 14.8289 20.323 14.6355C20.5164 14.4421 20.625 14.1798 20.625 13.9062V7.71875C20.625 7.44525 20.5164 7.18294 20.323 6.98955C20.1296 6.79615 19.8673 6.6875 19.5938 6.6875C19.3202 6.6875 19.0579 6.79615 18.8645 6.98955C18.6711 7.18294 18.5625 7.44525 18.5625 7.71875V9.78125H5.15625C4.88275 9.78125 4.62044 9.8899 4.42705 10.0833C4.23365 10.2767 4.125 10.539 4.125 10.8125C4.125 11.086 4.23365 11.3483 4.42705 11.5417C4.62044 11.7351 4.88275 11.8438 5.15625 11.8438ZM27.8438 22.1562H15.4688C15.1952 22.1562 14.9329 22.2649 14.7395 22.4583C14.5461 22.6517 14.4375 22.914 14.4375 23.1875C14.4375 23.461 14.5461 23.7233 14.7395 23.9167C14.9329 24.1101 15.1952 24.2188 15.4688 24.2188H27.8438C28.1173 24.2188 28.3796 24.1101 28.573 23.9167C28.7664 23.7233 28.875 23.461 28.875 23.1875C28.875 22.914 28.7664 22.6517 28.573 22.4583C28.3796 22.2649 28.1173 22.1562 27.8438 22.1562ZM11.3438 19.0625C11.0702 19.0625 10.8079 19.1711 10.6145 19.3645C10.4211 19.5579 10.3125 19.8202 10.3125 20.0938V22.1562H5.15625C4.88275 22.1562 4.62044 22.2649 4.42705 22.4583C4.23365 22.6517 4.125 22.914 4.125 23.1875C4.125 23.461 4.23365 23.7233 4.42705 23.9167C4.62044 24.1101 4.88275 24.2188 5.15625 24.2188H10.3125V26.2812C10.3125 26.5548 10.4211 26.8171 10.6145 27.0105C10.8079 27.2039 11.0702 27.3125 11.3438 27.3125C11.6173 27.3125 11.8796 27.2039 12.073 27.0105C12.2664 26.8171 12.375 26.5548 12.375 26.2812V20.0938C12.375 19.8202 12.2664 19.5579 12.073 19.3645C11.8796 19.1711 11.6173 19.0625 11.3438 19.0625Z" fill="white"/>
</svg>
