<svg width="125" height="50" viewBox="0 0 125 50" fill="none" xmlns="http://www.w3.org/2000/svg">
<path d="M112.603 30.2085C111.578 36.325 108.269 39.3938 102.676 39.3938C99.2393 39.3938 96.5921 38.1412 94.6921 35.6362C92.792 33.1311 91.8527 29.624 91.8527 25.0939C91.8527 20.4387 92.835 16.8063 94.7774 14.1968C96.7413 11.5874 99.4523 10.2722 102.953 10.2722C108.119 10.2722 111.194 12.9025 112.154 18.1215H124.707C124.173 12.819 121.931 8.62307 118.025 5.53345C114.118 2.44385 109.059 0.899048 102.868 0.899048C95.6528 0.899048 89.8459 3.13274 85.4915 7.60012C84.0611 9.06144 82.8866 10.6688 81.9265 12.4224C81.1787 8.93618 79.3647 6.26409 76.4185 4.40616C72.6614 2.06808 67.8797 0.899048 62.0518 0.899048C55.5408 0.899048 50.5242 2.10983 46.9805 4.51054C44.6323 6.09709 43.0739 8.14292 42.284 10.648C41.665 9.68773 40.9819 8.76915 40.2133 7.9133C36.0506 3.23712 30.4362 0.899048 23.3916 0.899048C16.603 0.899048 11.0101 3.19537 6.61247 7.78804C2.2149 12.3807 0.0161133 18.205 0.0161133 25.261C0.0161133 32.4422 2.19355 38.2038 6.56978 42.5668C10.9247 46.9299 16.6884 49.101 23.8612 49.101C29.2194 49.101 33.8305 47.7441 37.7157 45.0302C39.5089 43.7777 41.0459 42.2746 42.3267 40.5628C43.3728 42.3581 44.8884 43.8194 46.8738 45.1137C50.9724 47.7649 56.1812 49.0801 62.5001 49.0801C69.118 49.0801 74.3263 47.7023 78.1264 44.9258C80.2825 43.3393 81.8405 41.4396 82.759 39.2059C83.5276 40.354 84.4239 41.4396 85.427 42.4416C89.7605 46.742 95.503 48.8922 102.676 48.8922C108.867 48.8922 113.947 47.243 117.896 43.9447C121.846 40.6463 124.194 36.0536 124.984 30.1667H112.603V30.2085ZM16.3682 12.7356C18.2255 10.9194 20.5737 10.0008 23.4129 10.0008C26.4229 10.0008 28.7711 10.9611 30.4576 12.8608C32.144 14.7813 33.126 17.2238 33.4462 20.2299H13.0167C13.3796 17.0568 14.4897 14.5517 16.3682 12.7356ZM68.9467 38.9972C67.4101 40.02 65.3393 40.5419 62.7562 40.5419C56.5655 40.5419 53.342 38.7258 51.9971 33.653H33.4035C31.589 38.0577 28.4296 40.2706 23.9252 40.2706C20.4883 40.2706 17.8199 39.2476 15.9413 37.181C14.0414 35.1142 13.0594 32.1291 13.0167 28.1835H46.4254V26.9519C46.4254 26.0124 46.4041 25.0939 46.34 24.1963C46.5322 24.3007 46.7243 24.405 46.9164 24.5094C47.9197 25.0104 48.7096 25.4279 49.3073 25.7411C49.905 26.0751 50.8657 26.4091 52.1465 26.764C53.4488 27.1189 54.3667 27.3694 54.9431 27.5155C55.5195 27.6616 56.5228 27.8913 57.9744 28.1835C59.4261 28.4758 60.344 28.6846 60.7709 28.8098C60.9417 28.8724 61.1978 28.9351 61.4968 28.9768C65.2326 29.8118 67.7944 30.5634 69.1818 31.2731C70.5692 31.9829 71.2525 33.1937 71.2525 34.8846C71.2525 36.5964 70.4839 37.9742 68.9467 38.9972ZM75.5861 22.2131C73.729 21.4825 72.1488 20.9397 70.8467 20.6265C69.5446 20.3134 67.8159 19.9377 65.6595 19.5201C65.3606 19.4575 64.8696 19.374 64.2078 19.2488C60.472 18.4763 57.889 17.7875 56.4374 17.1195C54.9857 16.4723 54.26 15.3241 54.26 13.675C54.26 12.2554 54.9004 11.149 56.1599 10.3557C57.4194 9.56247 59.1912 9.16581 61.4968 9.16581C64.2078 9.16581 66.2572 9.64595 67.6876 10.5854C69.0965 11.5248 69.9928 13.153 70.3562 15.4494H80.5384C79.5992 18.0171 79.0657 20.8353 78.9589 23.9249C78.0626 23.3195 76.9312 22.7559 75.5861 22.2131Z" fill="#FF1468"/>
</svg>
